<svg xmlns="http://www.w3.org/2000/svg" viewBox="0 0 300 300" width="300" height="300">
<defs>
<linearGradient id="bg" x1="0" y1="0" x2="0" y2="1"><stop offset="0" stop-color="#22273A"/><stop offset="1" stop-color="#11131B"/></linearGradient>
<radialGradient id="glow" cx=".5" cy=".38" r=".55"><stop offset="0" stop-color="#EF0107" stop-opacity=".28"/><stop offset="1" stop-color="#EF0107" stop-opacity="0"/></radialGradient>
<radialGradient id="badge" cx=".5" cy=".3" r=".75"><stop offset="0" stop-color="#EF0107"/><stop offset="1" stop-color="#EF0107" stop-opacity=".35"/></radialGradient>
</defs>
<rect width="300" height="300" rx="26" fill="url(#bg)"/>
<rect width="300" height="300" rx="26" fill="url(#glow)"/>
<rect x="1.5" y="1.5" width="297" height="297" rx="24.5" fill="none" stroke="#EF0107" stroke-opacity=".55" stroke-width="3"/>
<circle cx="150" cy="124" r="78" fill="url(#badge)"/>
<circle cx="150" cy="124" r="78" fill="none" stroke="#fff" stroke-opacity=".25" stroke-width="2"/>
<g transform="translate(103 77) scale(.94)" fill="none" stroke="#fff" stroke-width="6" stroke-linecap="round" stroke-linejoin="round"><path d="M6,62 H94"/><circle cx="22" cy="62" r="8" fill="#fff"/><circle cx="50" cy="62" r="8" fill="#fff"/><circle cx="78" cy="62" r="8" fill="#fff"/><path d="M22,46 L22,16 M27.9,24.1 L22,16 L16.1,24.1"/><path d="M50,46 L50,16 M55.9,24.1 L50,16 L44.1,24.1"/><path d="M78,46 L78,16 M83.9,24.1 L78,16 L72.1,24.1"/></g>
<text x="150" y="258" text-anchor="middle" font-family="Pretendard, 'Noto Sans KR', 'Apple SD Gothic Neo', 'Malgun Gothic', sans-serif" font-size="32" font-weight="800" fill="#F0F2F7">라인 조율</text>
</svg>
